<svg xmlns="http://www.w3.org/2000/svg" width="28" height="12" viewBox="0 0 28 12" fill="none">
<path d="M6.91477 0.818182H8.14773V7.55966C8.14773 8.25568 7.98367 8.87713 7.65554 9.42401C7.33073 9.96757 6.87169 10.3968 6.27841 10.7116C5.68513 11.0232 4.98911 11.179 4.19034 11.179C3.39157 11.179 2.69555 11.0232 2.10227 10.7116C1.509 10.3968 1.0483 9.96757 0.72017 9.42401C0.39536 8.87713 0.232955 8.25568 0.232955 7.55966V0.818182H1.46591V7.46023C1.46591 7.95739 1.57528 8.39986 1.79403 8.78764C2.01278 9.17211 2.32434 9.47538 2.72869 9.69744C3.13636 9.91619 3.62358 10.0256 4.19034 10.0256C4.7571 10.0256 5.24432 9.91619 5.65199 9.69744C6.05966 9.47538 6.37121 9.17211 6.58665 8.78764C6.8054 8.39986 6.91477 7.95739 6.91477 7.46023V0.818182ZM16.1781 3.36364C16.1184 2.85985 15.8765 2.46875 15.4522 2.19034C15.028 1.91193 14.5076 1.77273 13.8912 1.77273C13.4404 1.77273 13.046 1.84564 12.7079 1.99148C12.3732 2.13731 12.1113 2.33783 11.9224 2.59304C11.7368 2.84825 11.644 3.13826 11.644 3.46307C11.644 3.73485 11.7086 3.96851 11.8379 4.16406C11.9705 4.3563 12.1395 4.51705 12.345 4.64631C12.5505 4.77225 12.7659 4.87666 12.9913 4.95952C13.2167 5.03906 13.4238 5.10369 13.6127 5.15341L14.6468 5.43182C14.912 5.50142 15.207 5.59754 15.5318 5.72017C15.8599 5.8428 16.1731 6.01018 16.4714 6.2223C16.773 6.43111 17.0216 6.69957 17.2172 7.0277C17.4127 7.35582 17.5105 7.75852 17.5105 8.2358C17.5105 8.78598 17.3663 9.28314 17.0779 9.72727C16.7929 10.1714 16.3753 10.5244 15.8251 10.7862C15.2782 11.0481 14.6137 11.179 13.8315 11.179C13.1023 11.179 12.4709 11.0613 11.9373 10.826C11.407 10.5907 10.9894 10.2625 10.6845 9.84162C10.3829 9.42069 10.2122 8.93182 10.1724 8.375H11.4451C11.4783 8.75947 11.6075 9.07765 11.8329 9.32955C12.0616 9.57812 12.35 9.76373 12.698 9.88636C13.0493 10.0057 13.4271 10.0653 13.8315 10.0653C14.3021 10.0653 14.7247 9.98911 15.0993 9.83665C15.4738 9.68087 15.7704 9.46544 15.9892 9.19034C16.2079 8.91193 16.3173 8.58712 16.3173 8.21591C16.3173 7.87784 16.2228 7.60275 16.0339 7.39062C15.845 7.1785 15.5964 7.00616 15.2882 6.87358C14.9799 6.741 14.6468 6.625 14.2889 6.52557L13.036 6.16761C12.2406 5.93892 11.6109 5.61245 11.1468 5.18821C10.6828 4.76397 10.4508 4.20881 10.4508 3.52273C10.4508 2.95265 10.6049 2.45549 10.9132 2.03125C11.2247 1.60369 11.6423 1.27225 12.166 1.03693C12.693 0.798295 13.2813 0.678977 13.9309 0.678977C14.5872 0.678977 15.1705 0.796638 15.6809 1.03196C16.1913 1.26397 16.5957 1.58215 16.894 1.98651C17.1956 2.39086 17.3547 2.8499 17.3713 3.36364H16.1781ZM22.6797 11H19.5376V0.818182H22.8189C23.8066 0.818182 24.6518 1.02202 25.3544 1.42969C26.0571 1.83404 26.5956 2.41572 26.9702 3.17472C27.3447 3.9304 27.532 4.83523 27.532 5.8892C27.532 6.94981 27.343 7.86293 26.9652 8.62855C26.5874 9.39086 26.0372 9.97751 25.3146 10.3885C24.5921 10.7962 23.7138 11 22.6797 11ZM20.7706 9.90625H22.6001C23.442 9.90625 24.1397 9.74384 24.6932 9.41903C25.2467 9.09422 25.6593 8.63187 25.9311 8.03196C26.2029 7.43205 26.3388 6.7178 26.3388 5.8892C26.3388 5.06723 26.2045 4.35961 25.9361 3.76633C25.6676 3.16974 25.2666 2.71236 24.733 2.39418C24.1993 2.07268 23.5348 1.91193 22.7393 1.91193H20.7706V9.90625Z" fill="#A0ABBB"/>
</svg>