<svg xmlns="http://www.w3.org/2000/svg" width="33" height="39" viewBox="0 0 33 40" fill="none">
<path d="M0 8C0 3.58172 3.58172 0 8 0H33V40H8C3.58172 40 0 36.4183 0 32V8Z" fill="#E7EAEE"/>
<path d="M16.0568 26.2727V13.5455H16.8722V26.2727H16.0568ZM18.8011 17.3636C18.7415 16.8598 18.4995 16.4688 18.0753 16.1903C17.651 15.9119 17.1307 15.7727 16.5142 15.7727C16.0634 15.7727 15.669 15.8456 15.331 15.9915C14.9962 16.1373 14.7344 16.3378 14.5455 16.593C14.3598 16.8482 14.267 17.1383 14.267 17.4631C14.267 17.7348 14.3317 17.9685 14.4609 18.1641C14.5935 18.3563 14.7625 18.517 14.968 18.6463C15.1735 18.7723 15.389 18.8767 15.6143 18.9595C15.8397 19.0391 16.0469 19.1037 16.2358 19.1534L17.2699 19.4318C17.535 19.5014 17.83 19.5975 18.1548 19.7202C18.483 19.8428 18.7962 20.0102 19.0945 20.2223C19.3961 20.4311 19.6446 20.6996 19.8402 21.0277C20.0357 21.3558 20.1335 21.7585 20.1335 22.2358C20.1335 22.786 19.9893 23.2831 19.701 23.7273C19.416 24.1714 18.9983 24.5244 18.4482 24.7862C17.9013 25.0481 17.2367 25.179 16.4545 25.179C15.7254 25.179 15.094 25.0613 14.5604 24.826C14.0301 24.5907 13.6125 24.2625 13.3075 23.8416C13.0059 23.4207 12.8352 22.9318 12.7955 22.375H14.0682C14.1013 22.7595 14.2306 23.0777 14.456 23.3295C14.6847 23.5781 14.973 23.7637 15.321 23.8864C15.6723 24.0057 16.0502 24.0653 16.4545 24.0653C16.9252 24.0653 17.3478 23.9891 17.7223 23.8366C18.0968 23.6809 18.3935 23.4654 18.6122 23.1903C18.831 22.9119 18.9403 22.5871 18.9403 22.2159C18.9403 21.8778 18.8459 21.6027 18.657 21.3906C18.468 21.1785 18.2195 21.0062 17.9112 20.8736C17.603 20.741 17.2699 20.625 16.9119 20.5256L15.6591 20.1676C14.8636 19.9389 14.2339 19.6125 13.7699 19.1882C13.3059 18.764 13.0739 18.2088 13.0739 17.5227C13.0739 16.9527 13.228 16.4555 13.5362 16.0312C13.8478 15.6037 14.2654 15.2723 14.7891 15.0369C15.3161 14.7983 15.9044 14.679 16.554 14.679C17.2102 14.679 17.7936 14.7966 18.304 15.032C18.8144 15.264 19.2188 15.5821 19.517 15.9865C19.8187 16.3909 19.9777 16.8499 19.9943 17.3636H18.8011Z" fill="#4B5768"/>
</svg>