<svg xmlns="http://www.w3.org/2000/svg" width="56" height="56" viewBox="0 0 56 56" fill="none">
<path d="M0 28C0 12.536 12.536 0 28 0C43.464 0 56 12.536 56 28C56 43.464 43.464 56 28 56C12.536 56 0 43.464 0 28Z" fill="#E8F3FC"/>
<path d="M20 23.8C20 22.1198 20 21.2798 20.327 20.638C20.6146 20.0735 21.0735 19.6146 21.638 19.327C22.2798 19 23.1198 19 24.8 19H31.2C32.8802 19 33.7202 19 34.362 19.327C34.9265 19.6146 35.3854 20.0735 35.673 20.638C36 21.2798 36 22.1198 36 23.8V37L33.25 35L30.75 37L28 35L25.25 37L22.75 35L20 37V23.8Z" stroke="#1787E0" stroke-width="2" stroke-linecap="round" stroke-linejoin="round"/>
</svg>