<svg xmlns="http://www.w3.org/2000/svg" width="217" height="15" viewBox="0 0 217 15" fill="none">
<path d="M9.71946 4.25355H7.86009C7.80706 3.94863 7.70928 3.6785 7.56676 3.44318C7.42424 3.20455 7.24692 3.00237 7.0348 2.83665C6.82268 2.67093 6.58073 2.54664 6.30895 2.46378C6.04048 2.3776 5.75047 2.33452 5.43892 2.33452C4.88542 2.33452 4.39489 2.47372 3.96733 2.75213C3.53977 3.02722 3.20502 3.43158 2.96307 3.9652C2.72112 4.4955 2.60014 5.14347 2.60014 5.90909C2.60014 6.68797 2.72112 7.34422 2.96307 7.87784C3.20833 8.40814 3.54309 8.80919 3.96733 9.08097C4.39489 9.34943 4.88376 9.48366 5.43395 9.48366C5.73887 9.48366 6.02391 9.44389 6.28906 9.36435C6.55753 9.28149 6.79782 9.16051 7.00994 9.00142C7.22538 8.84233 7.40601 8.64678 7.55185 8.41477C7.70099 8.18277 7.80374 7.91761 7.86009 7.61932L9.71946 7.62926C9.64986 8.11316 9.49905 8.56723 9.26705 8.99148C9.03835 9.41572 8.7384 9.79025 8.36719 10.1151C7.99598 10.4366 7.56179 10.6884 7.06463 10.8707C6.56747 11.0497 6.01563 11.1392 5.40909 11.1392C4.5142 11.1392 3.71544 10.9321 3.01278 10.5178C2.31013 10.1035 1.75663 9.50521 1.35227 8.72301C0.947917 7.94081 0.745739 7.00284 0.745739 5.90909C0.745739 4.81203 0.949574 3.87405 1.35724 3.09517C1.76491 2.31297 2.32008 1.71473 3.02273 1.30043C3.72538 0.886126 4.52083 0.678977 5.40909 0.678977C5.97585 0.678977 6.50284 0.758522 6.99006 0.917613C7.47727 1.0767 7.91146 1.31037 8.29261 1.61861C8.67377 1.92353 8.98698 2.29806 9.23224 2.74219C9.48082 3.183 9.64323 3.68679 9.71946 4.25355ZM13.1287 0.818182V11H11.329V0.818182H13.1287ZM14.9794 11V3.36364H16.7791V11H14.9794ZM15.8842 2.27983C15.5992 2.27983 15.3539 2.18537 15.1484 1.99645C14.9429 1.80421 14.8402 1.57386 14.8402 1.3054C14.8402 1.03362 14.9429 0.803267 15.1484 0.614346C15.3539 0.422111 15.5992 0.325994 15.8842 0.325994C16.1726 0.325994 16.4179 0.422111 16.62 0.614346C16.8255 0.803267 16.9283 1.03362 16.9283 1.3054C16.9283 1.57386 16.8255 1.80421 16.62 1.99645C16.4179 2.18537 16.1726 2.27983 15.8842 2.27983ZM21.9608 11.1491C21.1984 11.1491 20.5439 10.9818 19.997 10.647C19.4534 10.3123 19.0342 9.84991 18.7392 9.25994C18.4475 8.66667 18.3017 7.9839 18.3017 7.21165C18.3017 6.43608 18.4508 5.75166 18.7491 5.15838C19.0474 4.56179 19.4683 4.09777 20.0119 3.76633C20.5588 3.43158 21.2051 3.2642 21.9508 3.2642C22.5706 3.2642 23.1191 3.37855 23.5964 3.60724C24.077 3.83262 24.4598 4.15246 24.7449 4.56676C25.0299 4.97775 25.1923 5.45833 25.2321 6.00852H23.5119C23.4423 5.64062 23.2766 5.33404 23.0147 5.08878C22.7562 4.8402 22.4099 4.71591 21.9757 4.71591C21.6078 4.71591 21.2846 4.81534 21.0062 5.0142C20.7278 5.20975 20.5107 5.49148 20.3549 5.85938C20.2025 6.22727 20.1262 6.66809 20.1262 7.18182C20.1262 7.70218 20.2025 8.14962 20.3549 8.52415C20.5074 8.89536 20.7212 9.18205 20.9963 9.38423C21.2747 9.5831 21.6011 9.68253 21.9757 9.68253C22.2408 9.68253 22.4778 9.63281 22.6866 9.53338C22.8987 9.43063 23.0761 9.28314 23.2186 9.09091C23.3611 8.89867 23.4589 8.66501 23.5119 8.38991H25.2321C25.189 8.93016 25.0299 9.40909 24.7548 9.8267C24.4797 10.241 24.1052 10.5658 23.6312 10.8011C23.1573 11.0331 22.6004 11.1491 21.9608 11.1491ZM28.3505 8.60369L28.3455 6.43111H28.6339L31.3782 3.36364H33.4812L30.1055 7.12216H29.7326L28.3505 8.60369ZM26.7099 11V0.818182H28.5096V11H26.7099ZM31.5025 11L29.0167 7.52486L30.2298 6.2571L33.6552 11H31.5025ZM41.9664 3.36364V4.75568H37.5765V3.36364H41.9664ZM38.6603 1.53409H40.46V8.70312C40.46 8.94508 40.4965 9.13068 40.5694 9.25994C40.6457 9.38589 40.7451 9.47206 40.8677 9.51847C40.9904 9.56487 41.1262 9.58807 41.2754 9.58807C41.3881 9.58807 41.4908 9.57978 41.5836 9.56321C41.6797 9.54664 41.7527 9.53172 41.8024 9.51847L42.1056 10.9254C42.0095 10.9586 41.872 10.995 41.693 11.0348C41.5173 11.0746 41.3019 11.0978 41.0467 11.1044C40.5959 11.1177 40.1899 11.0497 39.8287 10.9006C39.4674 10.7481 39.1807 10.5128 38.9686 10.1946C38.7598 9.87642 38.657 9.47869 38.6603 9.00142V1.53409ZM46.7205 11.1491C45.9748 11.1491 45.3285 10.9851 44.7816 10.657C44.2347 10.3288 43.8105 9.86979 43.5089 9.27983C43.2106 8.68987 43.0614 8.00047 43.0614 7.21165C43.0614 6.42282 43.2106 5.73177 43.5089 5.13849C43.8105 4.54522 44.2347 4.08452 44.7816 3.75639C45.3285 3.42827 45.9748 3.2642 46.7205 3.2642C47.4663 3.2642 48.1126 3.42827 48.6594 3.75639C49.2063 4.08452 49.6289 4.54522 49.9272 5.13849C50.2288 5.73177 50.3796 6.42282 50.3796 7.21165C50.3796 8.00047 50.2288 8.68987 49.9272 9.27983C49.6289 9.86979 49.2063 10.3288 48.6594 10.657C48.1126 10.9851 47.4663 11.1491 46.7205 11.1491ZM46.7305 9.70739C47.1348 9.70739 47.4729 9.59635 47.7447 9.37429C48.0165 9.14891 48.2186 8.8473 48.3512 8.46946C48.4871 8.09162 48.555 7.67069 48.555 7.20668C48.555 6.73935 48.4871 6.31676 48.3512 5.93892C48.2186 5.55777 48.0165 5.2545 47.7447 5.02912C47.4729 4.80374 47.1348 4.69105 46.7305 4.69105C46.3162 4.69105 45.9715 4.80374 45.6964 5.02912C45.4246 5.2545 45.2208 5.55777 45.0849 5.93892C44.9523 6.31676 44.886 6.73935 44.886 7.20668C44.886 7.67069 44.9523 8.09162 45.0849 8.46946C45.2208 8.8473 45.4246 9.14891 45.6964 9.37429C45.9715 9.59635 46.3162 9.70739 46.7305 9.70739ZM60.247 7.78835V3.36364H62.0467V11H60.3017V9.64276H60.2221C60.0498 10.0703 59.7664 10.42 59.372 10.6918C58.9809 10.9635 58.4986 11.0994 57.9252 11.0994C57.4248 11.0994 56.9823 10.9884 56.5978 10.7663C56.2167 10.541 55.9184 10.2145 55.7029 9.78693C55.4875 9.35606 55.3798 8.8357 55.3798 8.22585V3.36364H57.1795V7.94744C57.1795 8.43134 57.3121 8.81581 57.5772 9.10085C57.8424 9.38589 58.1904 9.52841 58.6213 9.52841C58.8864 9.52841 59.1433 9.46378 59.3919 9.33452C59.6404 9.20526 59.8443 9.01302 60.0034 8.75781C60.1658 8.49929 60.247 8.17614 60.247 7.78835ZM63.8974 13.8636V3.36364H65.6673V4.62642H65.7717C65.8645 4.44081 65.9954 4.24361 66.1644 4.0348C66.3335 3.82268 66.5621 3.64205 66.8505 3.4929C67.1388 3.34044 67.5067 3.2642 67.9542 3.2642C68.5442 3.2642 69.0761 3.41501 69.5501 3.71662C70.0273 4.01491 70.4052 4.45739 70.6836 5.04403C70.9653 5.62737 71.1062 6.34328 71.1062 7.19176C71.1062 8.0303 70.9686 8.7429 70.6935 9.32955C70.4184 9.91619 70.0439 10.3636 69.57 10.6719C69.096 10.9801 68.5591 11.1342 67.9592 11.1342C67.5217 11.1342 67.1587 11.0613 66.8704 10.9155C66.582 10.7696 66.35 10.594 66.1744 10.3885C66.002 10.1797 65.8678 9.98248 65.7717 9.79688H65.6971V13.8636H63.8974ZM65.6623 7.18182C65.6623 7.67566 65.7319 8.10819 65.8711 8.4794C66.0136 8.85062 66.2174 9.14062 66.4826 9.34943C66.7511 9.55492 67.0759 9.65767 67.457 9.65767C67.8548 9.65767 68.1879 9.55161 68.4563 9.33949C68.7248 9.12405 68.927 8.83073 69.0629 8.45952C69.2021 8.08499 69.2717 7.65909 69.2717 7.18182C69.2717 6.70786 69.2037 6.28693 69.0678 5.91903C68.9319 5.55114 68.7298 5.26278 68.4613 5.05398C68.1928 4.84517 67.8581 4.74077 67.457 4.74077C67.0726 4.74077 66.7461 4.84186 66.4776 5.04403C66.2092 5.24621 66.0053 5.52959 65.8661 5.89418C65.7302 6.25876 65.6623 6.68797 65.6623 7.18182ZM74.4471 0.818182V11H72.6474V0.818182H74.4471ZM79.6287 11.1491C78.883 11.1491 78.2367 10.9851 77.6898 10.657C77.1429 10.3288 76.7187 9.86979 76.4171 9.27983C76.1188 8.68987 75.9696 8.00047 75.9696 7.21165C75.9696 6.42282 76.1188 5.73177 76.4171 5.13849C76.7187 4.54522 77.1429 4.08452 77.6898 3.75639C78.2367 3.42827 78.883 3.2642 79.6287 3.2642C80.3745 3.2642 81.0208 3.42827 81.5676 3.75639C82.1145 4.08452 82.5371 4.54522 82.8354 5.13849C83.137 5.73177 83.2878 6.42282 83.2878 7.21165C83.2878 8.00047 83.137 8.68987 82.8354 9.27983C82.5371 9.86979 82.1145 10.3288 81.5676 10.657C81.0208 10.9851 80.3745 11.1491 79.6287 11.1491ZM79.6387 9.70739C80.043 9.70739 80.3811 9.59635 80.6529 9.37429C80.9247 9.14891 81.1268 8.8473 81.2594 8.46946C81.3953 8.09162 81.4632 7.67069 81.4632 7.20668C81.4632 6.73935 81.3953 6.31676 81.2594 5.93892C81.1268 5.55777 80.9247 5.2545 80.6529 5.02912C80.3811 4.80374 80.043 4.69105 79.6387 4.69105C79.2244 4.69105 78.8797 4.80374 78.6046 5.02912C78.3328 5.2545 78.129 5.55777 77.9931 5.93892C77.8605 6.31676 77.7942 6.73935 77.7942 7.20668C77.7942 7.67069 77.8605 8.09162 77.9931 8.46946C78.129 8.8473 78.3328 9.14891 78.6046 9.37429C78.8797 9.59635 79.2244 9.70739 79.6387 9.70739ZM87.0128 11.1541C86.5289 11.1541 86.093 11.0679 85.7053 10.8956C85.3208 10.7199 85.0159 10.4614 84.7905 10.12C84.5684 9.77865 84.4574 9.35772 84.4574 8.85724C84.4574 8.42637 84.5369 8.07008 84.696 7.78835C84.8551 7.50663 85.0722 7.28125 85.3473 7.11222C85.6224 6.94318 85.9323 6.81558 86.277 6.7294C86.625 6.63991 86.9846 6.57528 87.3558 6.53551C87.8033 6.48911 88.1662 6.44768 88.4446 6.41122C88.723 6.37145 88.9252 6.31179 89.0511 6.23224C89.1804 6.14938 89.245 6.02178 89.245 5.84943V5.8196C89.245 5.44508 89.134 5.15507 88.9119 4.94957C88.6899 4.74408 88.37 4.64134 87.9524 4.64134C87.5116 4.64134 87.1619 4.73745 86.9034 4.92969C86.6482 5.12192 86.4759 5.34896 86.3864 5.6108L84.706 5.37216C84.8385 4.90814 85.0573 4.52036 85.3622 4.20881C85.6671 3.89394 86.04 3.65862 86.4808 3.50284C86.9216 3.34375 87.4089 3.2642 87.9425 3.2642C88.3104 3.2642 88.6766 3.30729 89.0412 3.39347C89.4058 3.47964 89.7389 3.62216 90.0405 3.82102C90.3421 4.01657 90.584 4.28338 90.7663 4.62145C90.9519 4.95952 91.0447 5.3821 91.0447 5.8892V11H89.3146V9.95099H89.255C89.1456 10.1631 88.9915 10.362 88.7926 10.5476C88.5971 10.7299 88.3501 10.8774 88.0518 10.9901C87.7569 11.0994 87.4105 11.1541 87.0128 11.1541ZM87.4801 9.83168C87.8414 9.83168 88.1546 9.76042 88.4197 9.6179C88.6849 9.47206 88.8887 9.27983 89.0312 9.04119C89.1771 8.80256 89.25 8.54238 89.25 8.26065V7.3608C89.1937 7.4072 89.0975 7.45028 88.9616 7.49006C88.8291 7.52983 88.6799 7.56463 88.5142 7.59446C88.3485 7.62429 88.1844 7.6508 88.022 7.67401C87.8596 7.69721 87.7188 7.71709 87.5994 7.73366C87.331 7.77012 87.0907 7.82978 86.8786 7.91264C86.6664 7.9955 86.4991 8.11151 86.3764 8.26065C86.2538 8.40649 86.1925 8.59541 86.1925 8.82741C86.1925 9.15885 86.3134 9.40909 86.5554 9.57812C86.7973 9.74716 87.1056 9.83168 87.4801 9.83168ZM95.6882 11.1342C95.0883 11.1342 94.5514 10.9801 94.0774 10.6719C93.6035 10.3636 93.2289 9.91619 92.9538 9.32955C92.6787 8.7429 92.5412 8.0303 92.5412 7.19176C92.5412 6.34328 92.6804 5.62737 92.9588 5.04403C93.2405 4.45739 93.62 4.01491 94.0973 3.71662C94.5746 3.41501 95.1065 3.2642 95.6932 3.2642C96.1406 3.2642 96.5085 3.34044 96.7969 3.4929C97.0852 3.64205 97.3139 3.82268 97.483 4.0348C97.652 4.24361 97.7829 4.44081 97.8757 4.62642H97.9503V0.818182H99.755V11H97.9851V9.79688H97.8757C97.7829 9.98248 97.6487 10.1797 97.473 10.3885C97.2973 10.594 97.0653 10.7696 96.777 10.9155C96.4886 11.0613 96.1257 11.1342 95.6882 11.1342ZM96.1903 9.65767C96.5715 9.65767 96.8963 9.55492 97.1648 9.34943C97.4332 9.14062 97.6371 8.85062 97.7763 8.4794C97.9155 8.10819 97.9851 7.67566 97.9851 7.18182C97.9851 6.68797 97.9155 6.25876 97.7763 5.89418C97.6404 5.52959 97.4382 5.24621 97.1697 5.04403C96.9046 4.84186 96.5781 4.74077 96.1903 4.74077C95.7893 4.74077 95.4545 4.84517 95.1861 5.05398C94.9176 5.26278 94.7154 5.55114 94.5795 5.91903C94.4437 6.28693 94.3757 6.70786 94.3757 7.18182C94.3757 7.65909 94.4437 8.08499 94.5795 8.45952C94.7188 8.83073 94.9226 9.12405 95.1911 9.33949C95.4628 9.55161 95.7959 9.65767 96.1903 9.65767Z" fill="#1787E0"/>
<path d="M108.862 11.1591C108.172 11.1591 107.567 10.995 107.047 10.6669C106.53 10.3388 106.126 9.87973 105.834 9.28977C105.546 8.69981 105.401 8.01042 105.401 7.22159C105.401 6.42614 105.546 5.73177 105.834 5.13849C106.126 4.54522 106.53 4.08452 107.047 3.75639C107.567 3.42827 108.172 3.2642 108.862 3.2642C109.551 3.2642 110.154 3.42827 110.671 3.75639C111.192 4.08452 111.596 4.54522 111.884 5.13849C112.176 5.73177 112.322 6.42614 112.322 7.22159C112.322 8.01042 112.176 8.69981 111.884 9.28977C111.596 9.87973 111.192 10.3388 110.671 10.6669C110.154 10.995 109.551 11.1591 108.862 11.1591ZM108.862 10.1051C109.385 10.1051 109.816 9.97088 110.154 9.70241C110.492 9.43395 110.743 9.08097 110.905 8.64347C111.067 8.20597 111.149 7.73201 111.149 7.22159C111.149 6.71117 111.067 6.23556 110.905 5.79474C110.743 5.35393 110.492 4.99763 110.154 4.72585C109.816 4.45407 109.385 4.31818 108.862 4.31818C108.338 4.31818 107.907 4.45407 107.569 4.72585C107.231 4.99763 106.981 5.35393 106.818 5.79474C106.656 6.23556 106.575 6.71117 106.575 7.22159C106.575 7.73201 106.656 8.20597 106.818 8.64347C106.981 9.08097 107.231 9.43395 107.569 9.70241C107.907 9.97088 108.338 10.1051 108.862 10.1051ZM114.113 11V3.36364H115.246V4.51705H115.326C115.465 4.1392 115.717 3.83262 116.082 3.5973C116.446 3.36198 116.857 3.24432 117.315 3.24432C117.401 3.24432 117.509 3.24597 117.638 3.24929C117.767 3.2526 117.865 3.25758 117.931 3.2642V4.45739C117.891 4.44744 117.8 4.43253 117.658 4.41264C117.518 4.38944 117.371 4.37784 117.215 4.37784C116.844 4.37784 116.513 4.45573 116.221 4.61151C115.933 4.76397 115.704 4.97609 115.535 5.24787C115.369 5.51634 115.286 5.82292 115.286 6.16761V11H114.113ZM126.561 11H123.419V0.818182H126.7C127.687 0.818182 128.533 1.02202 129.235 1.42969C129.938 1.83404 130.477 2.41572 130.851 3.17472C131.226 3.9304 131.413 4.83523 131.413 5.8892C131.413 6.94981 131.224 7.86293 130.846 8.62855C130.468 9.39086 129.918 9.97751 129.195 10.3885C128.473 10.7962 127.595 11 126.561 11ZM124.651 9.90625H126.481C127.323 9.90625 128.021 9.74384 128.574 9.41903C129.128 9.09422 129.54 8.63187 129.812 8.03196C130.084 7.43205 130.22 6.7178 130.22 5.8892C130.22 5.06723 130.085 4.35961 129.817 3.76633C129.548 3.16974 129.147 2.71236 128.614 2.39418C128.08 2.07268 127.416 1.91193 126.62 1.91193H124.651V9.90625ZM133.322 11V3.36364H134.455V4.51705H134.535C134.674 4.1392 134.926 3.83262 135.291 3.5973C135.655 3.36198 136.066 3.24432 136.524 3.24432C136.61 3.24432 136.718 3.24597 136.847 3.24929C136.976 3.2526 137.074 3.25758 137.14 3.2642V4.45739C137.1 4.44744 137.009 4.43253 136.867 4.41264C136.727 4.38944 136.58 4.37784 136.424 4.37784C136.053 4.37784 135.722 4.45573 135.43 4.61151C135.142 4.76397 134.913 4.97609 134.744 5.24787C134.578 5.51634 134.495 5.82292 134.495 6.16761V11H133.322ZM140.778 11.179C140.294 11.179 139.855 11.0878 139.461 10.9055C139.066 10.7199 138.753 10.4531 138.521 10.1051C138.289 9.75379 138.173 9.32955 138.173 8.83239C138.173 8.39489 138.259 8.04025 138.431 7.76847C138.604 7.49337 138.834 7.27794 139.123 7.12216C139.411 6.96638 139.729 6.85038 140.077 6.77415C140.428 6.6946 140.781 6.63163 141.136 6.58523C141.6 6.52557 141.976 6.48082 142.265 6.45099C142.556 6.41785 142.768 6.36316 142.901 6.28693C143.037 6.2107 143.105 6.07812 143.105 5.8892V5.84943C143.105 5.3589 142.971 4.97775 142.702 4.70597C142.437 4.43419 142.034 4.2983 141.494 4.2983C140.934 4.2983 140.495 4.42093 140.176 4.66619C139.858 4.91146 139.635 5.1733 139.505 5.4517L138.392 5.05398C138.591 4.58996 138.856 4.22869 139.187 3.97017C139.522 3.70833 139.886 3.52604 140.281 3.4233C140.679 3.31723 141.07 3.2642 141.454 3.2642C141.699 3.2642 141.981 3.29403 142.299 3.35369C142.621 3.41004 142.931 3.5277 143.229 3.70668C143.531 3.88565 143.781 4.15578 143.98 4.51705C144.179 4.87831 144.278 5.36222 144.278 5.96875V11H143.105V9.96591H143.045C142.966 10.1316 142.833 10.3089 142.647 10.4979C142.462 10.6868 142.215 10.8475 141.907 10.9801C141.598 11.1127 141.222 11.179 140.778 11.179ZM140.957 10.125C141.421 10.125 141.812 10.0339 142.13 9.85156C142.452 9.66927 142.694 9.43395 142.856 9.1456C143.022 8.85724 143.105 8.55398 143.105 8.2358V7.16193C143.055 7.22159 142.946 7.27628 142.777 7.32599C142.611 7.3724 142.419 7.41383 142.2 7.45028C141.984 7.48343 141.774 7.51326 141.569 7.53977C141.366 7.56297 141.202 7.58286 141.076 7.59943C140.771 7.6392 140.486 7.70384 140.221 7.79332C139.959 7.8795 139.747 8.01042 139.585 8.18608C139.426 8.35843 139.346 8.59375 139.346 8.89205C139.346 9.29972 139.497 9.60795 139.799 9.81676C140.104 10.0223 140.49 10.125 140.957 10.125ZM149.502 14.0227C148.935 14.0227 148.448 13.9498 148.04 13.804C147.633 13.6615 147.293 13.4725 147.021 13.2372C146.753 13.0052 146.539 12.7566 146.38 12.4915L147.314 11.8352C147.421 11.9744 147.555 12.1335 147.717 12.3125C147.88 12.4948 148.102 12.6522 148.383 12.7848C148.668 12.9207 149.041 12.9886 149.502 12.9886C150.118 12.9886 150.627 12.8395 151.028 12.5412C151.429 12.2429 151.63 11.7756 151.63 11.1392V9.58807H151.53C151.444 9.72727 151.322 9.89962 151.162 10.1051C151.007 10.3073 150.781 10.4879 150.486 10.647C150.195 10.8028 149.8 10.8807 149.303 10.8807C148.687 10.8807 148.133 10.7348 147.643 10.4432C147.155 10.1515 146.769 9.72727 146.484 9.17045C146.202 8.61364 146.062 7.9375 146.062 7.14205C146.062 6.35985 146.199 5.67874 146.474 5.09872C146.749 4.51539 147.132 4.06463 147.623 3.74645C148.113 3.42495 148.68 3.2642 149.323 3.2642C149.82 3.2642 150.215 3.34706 150.506 3.51278C150.801 3.67519 151.027 3.8608 151.182 4.0696C151.341 4.27509 151.464 4.44413 151.55 4.5767H151.67V3.36364H152.803V11.2188C152.803 11.875 152.654 12.4086 152.356 12.8196C152.061 13.2339 151.663 13.5372 151.162 13.7294C150.665 13.925 150.112 14.0227 149.502 14.0227ZM149.462 9.8267C149.933 9.8267 150.331 9.71899 150.655 9.50355C150.98 9.28812 151.227 8.97822 151.396 8.57386C151.565 8.16951 151.65 7.68561 151.65 7.12216C151.65 6.57197 151.567 6.08641 151.401 5.66548C151.235 5.24455 150.99 4.91477 150.665 4.67614C150.34 4.4375 149.939 4.31818 149.462 4.31818C148.965 4.31818 148.551 4.44413 148.219 4.69602C147.891 4.94792 147.644 5.28598 147.479 5.71023C147.316 6.13447 147.235 6.60511 147.235 7.12216C147.235 7.65246 147.318 8.12145 147.483 8.52912C147.653 8.93348 147.901 9.25166 148.229 9.48366C148.561 9.71236 148.972 9.8267 149.462 9.8267ZM161.135 11.179C160.652 11.179 160.212 11.0878 159.818 10.9055C159.424 10.7199 159.11 10.4531 158.878 10.1051C158.646 9.75379 158.53 9.32955 158.53 8.83239C158.53 8.39489 158.617 8.04025 158.789 7.76847C158.961 7.49337 159.192 7.27794 159.48 7.12216C159.768 6.96638 160.086 6.85038 160.434 6.77415C160.786 6.6946 161.139 6.63163 161.493 6.58523C161.957 6.52557 162.334 6.48082 162.622 6.45099C162.914 6.41785 163.126 6.36316 163.258 6.28693C163.394 6.2107 163.462 6.07812 163.462 5.8892V5.84943C163.462 5.3589 163.328 4.97775 163.059 4.70597C162.794 4.43419 162.392 4.2983 161.851 4.2983C161.291 4.2983 160.852 4.42093 160.534 4.66619C160.216 4.91146 159.992 5.1733 159.863 5.4517L158.749 5.05398C158.948 4.58996 159.213 4.22869 159.545 3.97017C159.879 3.70833 160.244 3.52604 160.638 3.4233C161.036 3.31723 161.427 3.2642 161.812 3.2642C162.057 3.2642 162.339 3.29403 162.657 3.35369C162.978 3.41004 163.288 3.5277 163.586 3.70668C163.888 3.88565 164.138 4.15578 164.337 4.51705C164.536 4.87831 164.635 5.36222 164.635 5.96875V11H163.462V9.96591H163.403C163.323 10.1316 163.19 10.3089 163.005 10.4979C162.819 10.6868 162.572 10.8475 162.264 10.9801C161.956 11.1127 161.58 11.179 161.135 11.179ZM161.314 10.125C161.778 10.125 162.17 10.0339 162.488 9.85156C162.809 9.66927 163.051 9.43395 163.214 9.1456C163.379 8.85724 163.462 8.55398 163.462 8.2358V7.16193C163.412 7.22159 163.303 7.27628 163.134 7.32599C162.968 7.3724 162.776 7.41383 162.557 7.45028C162.342 7.48343 162.131 7.51326 161.926 7.53977C161.724 7.56297 161.56 7.58286 161.434 7.59943C161.129 7.6392 160.844 7.70384 160.579 7.79332C160.317 7.8795 160.105 8.01042 159.942 8.18608C159.783 8.35843 159.704 8.59375 159.704 8.89205C159.704 9.29972 159.854 9.60795 160.156 9.81676C160.461 10.0223 160.847 10.125 161.314 10.125ZM167.95 6.40625V11H166.777V3.36364H167.911V4.55682H168.01C168.189 4.16903 168.461 3.85748 168.825 3.62216C169.19 3.38352 169.661 3.2642 170.237 3.2642C170.754 3.2642 171.207 3.37027 171.594 3.58239C171.982 3.79119 172.284 4.10938 172.499 4.53693C172.715 4.96117 172.822 5.49811 172.822 6.14773V11H171.649V6.22727C171.649 5.62737 171.493 5.16004 171.182 4.82528C170.87 4.48722 170.443 4.31818 169.899 4.31818C169.525 4.31818 169.19 4.39938 168.895 4.56179C168.603 4.72419 168.373 4.96117 168.204 5.27273C168.035 5.58428 167.95 5.96212 167.95 6.40625ZM177.85 11.1591C177.214 11.1591 176.652 10.9983 176.165 10.6768C175.677 10.352 175.296 9.89465 175.021 9.30469C174.746 8.71141 174.608 8.01042 174.608 7.2017C174.608 6.39962 174.746 5.7036 175.021 5.11364C175.296 4.52367 175.679 4.06794 176.17 3.74645C176.66 3.42495 177.227 3.2642 177.87 3.2642C178.367 3.2642 178.76 3.34706 179.048 3.51278C179.34 3.67519 179.562 3.8608 179.714 4.0696C179.87 4.27509 179.991 4.44413 180.077 4.5767H180.177V0.818182H181.35V11H180.216V9.8267H180.077C179.991 9.96591 179.868 10.1416 179.709 10.3537C179.55 10.5625 179.323 10.7498 179.028 10.9155C178.733 11.0779 178.34 11.1591 177.85 11.1591ZM178.009 10.1051C178.48 10.1051 178.877 9.98248 179.202 9.73722C179.527 9.48864 179.774 9.1456 179.943 8.7081C180.112 8.26728 180.197 7.75852 180.197 7.18182C180.197 6.61174 180.114 6.11293 179.948 5.68537C179.782 5.2545 179.537 4.91974 179.212 4.68111C178.887 4.43916 178.486 4.31818 178.009 4.31818C177.512 4.31818 177.098 4.44579 176.766 4.70099C176.438 4.95289 176.191 5.29593 176.025 5.73011C175.863 6.16098 175.782 6.64489 175.782 7.18182C175.782 7.72538 175.865 8.21922 176.03 8.66335C176.199 9.10417 176.448 9.45549 176.776 9.71733C177.108 9.97585 177.519 10.1051 178.009 10.1051ZM190.483 11.1591C189.846 11.1591 189.285 10.9983 188.797 10.6768C188.31 10.352 187.929 9.89465 187.654 9.30469C187.379 8.71141 187.241 8.01042 187.241 7.2017C187.241 6.39962 187.379 5.7036 187.654 5.11364C187.929 4.52367 188.312 4.06794 188.802 3.74645C189.293 3.42495 189.86 3.2642 190.503 3.2642C191 3.2642 191.393 3.34706 191.681 3.51278C191.973 3.67519 192.195 3.8608 192.347 4.0696C192.503 4.27509 192.624 4.44413 192.71 4.5767H192.809V0.818182H193.983V11H192.849V9.8267H192.71C192.624 9.96591 192.501 10.1416 192.342 10.3537C192.183 10.5625 191.956 10.7498 191.661 10.9155C191.366 11.0779 190.973 11.1591 190.483 11.1591ZM190.642 10.1051C191.113 10.1051 191.51 9.98248 191.835 9.73722C192.16 9.48864 192.407 9.1456 192.576 8.7081C192.745 8.26728 192.829 7.75852 192.829 7.18182C192.829 6.61174 192.747 6.11293 192.581 5.68537C192.415 5.2545 192.17 4.91974 191.845 4.68111C191.52 4.43916 191.119 4.31818 190.642 4.31818C190.145 4.31818 189.73 4.44579 189.399 4.70099C189.071 4.95289 188.824 5.29593 188.658 5.73011C188.496 6.16098 188.415 6.64489 188.415 7.18182C188.415 7.72538 188.497 8.21922 188.663 8.66335C188.832 9.10417 189.081 9.45549 189.409 9.71733C189.74 9.97585 190.151 10.1051 190.642 10.1051ZM196.295 11V3.36364H197.428V4.51705H197.508C197.647 4.1392 197.899 3.83262 198.263 3.5973C198.628 3.36198 199.039 3.24432 199.496 3.24432C199.582 3.24432 199.69 3.24597 199.819 3.24929C199.949 3.2526 200.046 3.25758 200.113 3.2642V4.45739C200.073 4.44744 199.982 4.43253 199.839 4.41264C199.7 4.38944 199.553 4.37784 199.397 4.37784C199.026 4.37784 198.694 4.45573 198.403 4.61151C198.114 4.76397 197.885 4.97609 197.716 5.24787C197.551 5.51634 197.468 5.82292 197.468 6.16761V11H196.295ZM204.373 11.1591C203.684 11.1591 203.079 10.995 202.559 10.6669C202.042 10.3388 201.637 9.87973 201.346 9.28977C201.057 8.69981 200.913 8.01042 200.913 7.22159C200.913 6.42614 201.057 5.73177 201.346 5.13849C201.637 4.54522 202.042 4.08452 202.559 3.75639C203.079 3.42827 203.684 3.2642 204.373 3.2642C205.063 3.2642 205.666 3.42827 206.183 3.75639C206.703 4.08452 207.108 4.54522 207.396 5.13849C207.688 5.73177 207.834 6.42614 207.834 7.22159C207.834 8.01042 207.688 8.69981 207.396 9.28977C207.108 9.87973 206.703 10.3388 206.183 10.6669C205.666 10.995 205.063 11.1591 204.373 11.1591ZM204.373 10.1051C204.897 10.1051 205.328 9.97088 205.666 9.70241C206.004 9.43395 206.254 9.08097 206.417 8.64347C206.579 8.20597 206.66 7.73201 206.66 7.22159C206.66 6.71117 206.579 6.23556 206.417 5.79474C206.254 5.35393 206.004 4.99763 205.666 4.72585C205.328 4.45407 204.897 4.31818 204.373 4.31818C203.85 4.31818 203.419 4.45407 203.081 4.72585C202.743 4.99763 202.492 5.35393 202.33 5.79474C202.168 6.23556 202.086 6.71117 202.086 7.22159C202.086 7.73201 202.168 8.20597 202.33 8.64347C202.492 9.08097 202.743 9.43395 203.081 9.70241C203.419 9.97088 203.85 10.1051 204.373 10.1051ZM209.625 13.8636V3.36364H210.758V4.5767H210.897C210.984 4.44413 211.103 4.27509 211.255 4.0696C211.411 3.8608 211.633 3.67519 211.922 3.51278C212.213 3.34706 212.608 3.2642 213.105 3.2642C213.748 3.2642 214.315 3.42495 214.805 3.74645C215.296 4.06794 215.678 4.52367 215.953 5.11364C216.229 5.7036 216.366 6.39962 216.366 7.2017C216.366 8.01042 216.229 8.71141 215.953 9.30469C215.678 9.89465 215.297 10.352 214.81 10.6768C214.323 10.9983 213.761 11.1591 213.125 11.1591C212.634 11.1591 212.241 11.0779 211.946 10.9155C211.651 10.7498 211.424 10.5625 211.265 10.3537C211.106 10.1416 210.984 9.96591 210.897 9.8267H210.798V13.8636H209.625ZM210.778 7.18182C210.778 7.75852 210.863 8.26728 211.032 8.7081C211.201 9.1456 211.448 9.48864 211.772 9.73722C212.097 9.98248 212.495 10.1051 212.966 10.1051C213.456 10.1051 213.865 9.97585 214.194 9.71733C214.525 9.45549 214.774 9.10417 214.939 8.66335C215.108 8.21922 215.193 7.72538 215.193 7.18182C215.193 6.64489 215.11 6.16098 214.944 5.73011C214.782 5.29593 214.535 4.95289 214.203 4.70099C213.875 4.44579 213.463 4.31818 212.966 4.31818C212.488 4.31818 212.087 4.43916 211.762 4.68111C211.438 4.91974 211.192 5.2545 211.027 5.68537C210.861 6.11293 210.778 6.61174 210.778 7.18182Z" fill="#4B5768"/>
</svg>