<svg xmlns="http://www.w3.org/2000/svg" width="56" height="56" viewBox="0 0 56 56" fill="none">
<path d="M0 28C0 12.536 12.536 0 28 0C43.464 0 56 12.536 56 28C56 43.464 43.464 56 28 56C12.536 56 0 43.464 0 28Z" fill="#E8F3FC"/>
<path d="M27 27H22.2C21.0799 27 20.5198 27 20.092 27.218C19.7157 27.4097 19.4097 27.7157 19.218 28.092C19 28.5198 19 29.0799 19 30.2V37M37 37V22.2C37 21.0799 37 20.5198 36.782 20.092C36.5903 19.7157 36.2843 19.4097 35.908 19.218C35.4802 19 34.9201 19 33.8 19H30.2C29.0799 19 28.5198 19 28.092 19.218C27.7157 19.4097 27.4097 19.7157 27.218 20.092C27 20.5198 27 21.0799 27 22.2V37M38 37H18M30.5 23H33.5M30.5 27H33.5M30.5 31H33.5" stroke="#1787E0" stroke-width="2" stroke-linecap="round" stroke-linejoin="round"/>
</svg>